<svg width="41" height="49" viewBox="0 0 41 49" fill="none" xmlns="http://www.w3.org/2000/svg">
<path d="M3.13569 40.1712C3.13569 41.1479 3.91385 41.9369 4.87702 41.9369H36.112C37.0752 41.9369 37.8534 41.1479 37.8534 40.1712V27.3142C37.8534 17.5914 30.0827 9.71171 20.4945 9.71171C10.9064 9.71171 3.13569 17.5914 3.13569 27.3142V40.1712ZM7.05367 27.3142C7.05367 19.7876 13.0721 13.6847 20.4945 13.6847C27.9169 13.6847 33.9354 19.7876 33.9354 27.3142V37.964H14.6176V28.5282C14.6176 28.2247 14.3727 27.9764 14.0734 27.9764H11.6791C11.3798 27.9764 11.1349 28.2247 11.1349 28.5282V37.964H7.05367V27.3142ZM4.43624 13.3812L6.59114 11.1961C6.75983 11.025 6.75983 10.7436 6.59114 10.5725L2.89626 6.82579C2.81444 6.74363 2.70395 6.69755 2.58881 6.69755C2.47366 6.69755 2.36317 6.74363 2.28135 6.82579L0.126464 9.01092C0.0454477 9.09389 0 9.20593 0 9.32269C0 9.43945 0.0454477 9.55149 0.126464 9.63446L3.82134 13.3812C3.99003 13.5523 4.26211 13.5523 4.43624 13.3812ZM40.8735 9.01092L38.7186 6.82579C38.6368 6.74363 38.5263 6.69755 38.4111 6.69755C38.296 6.69755 38.1855 6.74363 38.1037 6.82579L34.4088 10.5725C34.3278 10.6555 34.2823 10.7675 34.2823 10.8843C34.2823 11.001 34.3278 11.1131 34.4088 11.1961L36.5637 13.3812C36.7324 13.5523 37.0099 13.5523 37.1786 13.3812L40.8735 9.63446C41.0422 9.45788 41.0422 9.18198 40.8735 9.01092ZM37.9078 45.4685H3.08128C2.11811 45.4685 1.33995 46.2575 1.33995 47.2342V48.5586C1.33995 48.8014 1.53585 49 1.77528 49H39.2138C39.4532 49 39.6491 48.8014 39.6491 48.5586V47.2342C39.6491 46.2575 38.871 45.4685 37.9078 45.4685ZM18.9709 6.18018H22.0182C22.2576 6.18018 22.4535 5.98153 22.4535 5.73874V0.441441C22.4535 0.198649 22.2576 0 22.0182 0H18.9709C18.7314 0 18.5355 0.198649 18.5355 0.441441V5.73874C18.5355 5.98153 18.7314 6.18018 18.9709 6.18018Z" fill="#F47607"/>
</svg>
