<svg width="79" height="79" viewBox="0 0 79 79" fill="none" xmlns="http://www.w3.org/2000/svg">
<path fill-rule="evenodd" clip-rule="evenodd" d="M47.474 70.1015C30.4023 74.6759 12.8566 64.5459 8.28221 47.4741C3.70784 30.4023 13.8379 12.8566 30.9096 8.28224C47.9814 3.70788 65.5271 13.8379 70.1015 30.9097C74.6758 47.9814 64.5458 65.5271 47.474 70.1015ZM42.7794 20.0097L39.2282 20.0709L39.365 25.7821C38.4274 25.7911 37.4733 25.8314 36.5439 25.8631L36.4249 20.1181L32.8757 20.1788L32.9945 26.0314C32.2229 26.0497 31.4827 26.0845 30.7349 26.0985L25.8458 26.1662L25.9269 29.9771C25.9269 29.9771 28.5588 29.893 28.5153 29.9316C29.9556 29.8977 30.4495 30.7364 30.5882 31.455L30.6654 35.7535L30.7282 39.4885L30.8774 47.5486C30.8093 47.9975 30.5781 48.7344 29.5671 48.7631C29.6037 48.8071 26.9767 48.8091 26.9767 48.8091L26.3423 53.056L30.9595 52.9783C31.8156 52.9663 32.6779 52.9775 33.5083 52.9704L33.6227 58.907L37.1739 58.8458L37.0478 52.9661L37.0421 48.6485L36.8923 40.7791C37.2945 40.7811 37.7165 40.7488 38.1684 40.7353C39.6015 40.6744 41.0357 40.4246 42.4386 40.1585C43.3088 40.006 44.1424 39.8096 44.9924 39.5819C46.2539 39.2138 47.4519 38.6554 48.5449 37.926C49.46 37.3308 50.5202 36.5892 51.0553 35.5803C51.681 34.4147 51.7776 33.0677 51.6202 31.7848C51.1345 27.5688 47.4701 26.2027 42.8996 25.86L42.7794 20.0097ZM47.8367 39.9813C46.9498 40.3805 46.4948 40.5831 45.5829 40.8813L44.301 41.3055C45.7821 41.8259 46.8761 42.8021 46.9127 44.546C46.9867 47.8204 42.8927 48.4598 39.7648 48.5939L39.8559 52.9446L39.8542 53.1314L40.0018 58.79L43.5279 58.7356L43.412 52.8013C49.3584 52.3675 53.523 50.794 53.908 45.1294C54.1771 41.6284 52.6839 39.3554 50.5453 38.2824C50.5269 38.3142 50.4767 38.3277 50.4583 38.3595C49.7465 38.9022 48.7212 39.5807 47.8362 39.9794L47.8367 39.9813ZM45.0501 33.4914C45.1372 37.5181 38.819 37.1591 36.8129 37.1831L36.6694 30.0409C38.6823 30.042 44.968 29.275 45.0501 33.4914Z" fill="#434343" fill-opacity="0.8"/>
</svg>
