<svg width="36" height="31" viewBox="0 0 36 31" fill="none" xmlns="http://www.w3.org/2000/svg">
<path d="M35.7959 28.4906L33.3651 19.9286V1.28571C33.3651 0.574554 32.7905 0 32.0794 0H3.79366C3.08249 0 2.50794 0.574554 2.50794 1.28571V19.9286L0.0771375 28.4906C-0.224202 29.3304 0.394548 30.2143 1.28651 30.2143H34.5865C35.4785 30.2143 36.0972 29.3304 35.7959 28.4906ZM5.4008 2.89286H30.4722V18.7634H5.4008V2.89286ZM14.5736 27.3214L14.899 25.8348H20.9378L21.2633 27.3214H14.5736ZM23.5736 27.3214L22.8062 23.8379C22.774 23.6893 22.6414 23.5848 22.4928 23.5848H13.3481C13.1954 23.5848 13.0669 23.6893 13.0347 23.8379L12.2673 27.3214H3.41598L5.11553 21.3348H30.7575L32.457 27.3214H23.5736Z" fill="#FA8C16"/>
</svg>
