<svg width="64" height="64" viewBox="0 0 64 64" fill="none" xmlns="http://www.w3.org/2000/svg">
<path fill-rule="evenodd" clip-rule="evenodd" d="M32 64C14.326 64 0 49.674 0 32C0 14.326 14.326 0 32 0C49.674 0 64 14.326 64 32C64 49.674 49.674 64 32 64ZM47.988 32.438L32.996 8L18 32.44L32.996 41.146L47.988 32.438ZM48 35.232L32.996 43.934L18 35.234L32.996 55.99L48 35.232Z" fill="#434343" fill-opacity="0.8"/>
<path d="M32.996 8V25.74L47.99 32.44L32.996 8ZM32.996 43.936V55.99L48 35.232L32.996 43.936Z" fill="black" fill-opacity="0.45"/>
<path d="M32.996 41.1461L47.99 32.4401L32.996 25.7441V41.1461Z" fill="#434343" fill-opacity="0.8"/>
<path d="M18 32.4401L32.996 41.1461V25.7441L18 32.4401Z" fill="black" fill-opacity="0.45"/>
</svg>
