<svg width="62" height="52" viewBox="0 0 62 52" fill="none" xmlns="http://www.w3.org/2000/svg">
<path d="M46.5 1.52941H17.0196C16.6853 1.52941 16.4118 1.80471 16.4118 2.14118V6.42353C16.4118 6.76 16.6853 7.03529 17.0196 7.03529H46.5C46.8343 7.03529 47.1078 6.76 47.1078 6.42353V2.14118C47.1078 1.80471 46.8343 1.52941 46.5 1.52941ZM53.8922 23.2471H17.0196C16.6853 23.2471 16.4118 23.5224 16.4118 23.8588V28.1412C16.4118 28.4776 16.6853 28.7529 17.0196 28.7529H53.8922C54.2265 28.7529 54.5 28.4776 54.5 28.1412V23.8588C54.5 23.5224 54.2265 23.2471 53.8922 23.2471ZM61.3922 44.9647H17.0196C16.6853 44.9647 16.4118 45.24 16.4118 45.5765V49.8588C16.4118 50.1953 16.6853 50.4706 17.0196 50.4706H61.3922C61.7265 50.4706 62 50.1953 62 49.8588V45.5765C62 45.24 61.7265 44.9647 61.3922 44.9647ZM0 4.28235C-8.3262e-09 4.84472 0.110056 5.40158 0.323885 5.92114C0.537714 6.4407 0.851128 6.91278 1.24623 7.31043C1.64134 7.70809 2.11039 8.02352 2.62662 8.23873C3.14285 8.45394 3.69614 8.56471 4.2549 8.56471C4.81366 8.56471 5.36695 8.45394 5.88318 8.23873C6.39941 8.02352 6.86847 7.70809 7.26357 7.31043C7.65868 6.91278 7.97209 6.4407 8.18592 5.92114C8.39975 5.40158 8.5098 4.84472 8.5098 4.28235C8.5098 3.71999 8.39975 3.16313 8.18592 2.64357C7.97209 2.12401 7.65868 1.65193 7.26357 1.25427C6.86847 0.856619 6.39941 0.541183 5.88318 0.325974C5.36695 0.110766 4.81366 0 4.2549 0C3.69614 0 3.14285 0.110766 2.62662 0.325974C2.11039 0.541183 1.64134 0.856619 1.24623 1.25427C0.851128 1.65193 0.537714 2.12401 0.323885 2.64357C0.110056 3.16313 -8.3262e-09 3.71999 0 4.28235ZM0 26C-8.3262e-09 26.5624 0.110056 27.1192 0.323885 27.6388C0.537714 28.1583 0.851128 28.6304 1.24623 29.0281C1.64134 29.4257 2.11039 29.7412 2.62662 29.9564C3.14285 30.1716 3.69614 30.2824 4.2549 30.2824C4.81366 30.2824 5.36695 30.1716 5.88318 29.9564C6.39941 29.7412 6.86847 29.4257 7.26357 29.0281C7.65868 28.6304 7.97209 28.1583 8.18592 27.6388C8.39975 27.1192 8.5098 26.5624 8.5098 26C8.5098 25.4376 8.39975 24.8808 8.18592 24.3612C7.97209 23.8417 7.65868 23.3696 7.26357 22.9719C6.86847 22.5743 6.39941 22.2588 5.88318 22.0436C5.36695 21.8284 4.81366 21.7176 4.2549 21.7176C3.69614 21.7176 3.14285 21.8284 2.62662 22.0436C2.11039 22.2588 1.64134 22.5743 1.24623 22.9719C0.851128 23.3696 0.537714 23.8417 0.323885 24.3612C0.110056 24.8808 -8.3262e-09 25.4376 0 26ZM0 47.7176C-8.3262e-09 48.28 0.110056 48.8369 0.323885 49.3564C0.537714 49.876 0.851128 50.3481 1.24623 50.7457C1.64134 51.1434 2.11039 51.4588 2.62662 51.674C3.14285 51.8892 3.69614 52 4.2549 52C4.81366 52 5.36695 51.8892 5.88318 51.674C6.39941 51.4588 6.86847 51.1434 7.26357 50.7457C7.65868 50.3481 7.97209 49.876 8.18592 49.3564C8.39975 48.8369 8.5098 48.28 8.5098 47.7176C8.5098 47.1553 8.39975 46.5984 8.18592 46.0789C7.97209 45.5593 7.65868 45.0872 7.26357 44.6896C6.86847 44.2919 6.39941 43.9765 5.88318 43.7613C5.36695 43.5461 4.81366 43.4353 4.2549 43.4353C3.69614 43.4353 3.14285 43.5461 2.62662 43.7613C2.11039 43.9765 1.64134 44.2919 1.24623 44.6896C0.851128 45.0872 0.537714 45.5593 0.323885 46.0789C0.110056 46.5984 -8.3262e-09 47.1553 0 47.7176Z" fill="#FA8C16"/>
</svg>
