<svg width="39" height="25" viewBox="0 0 39 25" fill="none" xmlns="http://www.w3.org/2000/svg">
<path d="M33.4305 0.0365006C32.3562 0.1453 31.3074 0.429403 30.3264 0.877349L7.33665 11.0512C6.65504 11.3544 6.18408 11.0064 5.54911 10.5374C4.44318 9.7309 2.80611 8.58986 2.30506 8.20453C1.51361 7.60264 -0.448473 7.97453 0.0932057 9.18427L2.96109 15.578C3.90301 17.6689 8.79917 17.1701 17.3502 13.3855C18.0769 13.0629 19.0233 12.6283 19.8419 12.2654L17.6782 23.6997C17.3998 24.8094 17.6857 25.1216 18.0543 24.9603L19.3243 24.4002C19.9803 24.109 20.8891 23.0964 21.3465 22.1121L27.5533 8.8109C33.7374 5.94335 39.3965 3.06684 38.9782 2.13787C38.4862 1.03566 36.3435 -0.232332 33.4305 0.0365006ZM10.531 1.57631C9.97432 1.56735 9.49584 1.61963 9.16782 1.7645L7.89789 2.32307C7.53075 2.48736 7.58492 2.90554 8.60357 3.44321L13.7284 6.52433L19.4176 4.00327L12.2253 1.8108C11.6736 1.65802 11.1038 1.57816 10.531 1.57631Z" fill="#AC550B"/>
</svg>
