<svg width="44" height="44" viewBox="0 0 44 44" fill="none" xmlns="http://www.w3.org/2000/svg">
<path d="M21.9992 0.564651C10.1632 0.564651 0.570587 10.1573 0.570587 21.9932V42.0825C0.570587 42.8247 1.16769 43.4218 1.90987 43.4218H12.1777C14.1476 43.4218 15.7492 41.8202 15.7492 39.8504V28.2432C15.7492 26.2734 14.1476 24.6718 12.1777 24.6718H4.58845V21.9932C4.58845 12.3783 12.3842 4.58251 21.9992 4.58251C31.6141 4.58251 39.4099 12.3783 39.4099 21.9932V24.6718H31.8206C29.8507 24.6718 28.2492 26.2734 28.2492 28.2432V39.8504C28.2492 41.8202 29.8507 43.4218 31.8206 43.4218H42.0885C42.8306 43.4218 43.4277 42.8247 43.4277 42.0825V21.9932C43.4277 10.1573 33.8351 0.564651 21.9992 0.564651ZM11.7313 28.6897V39.4039H4.58845V28.6897H11.7313ZM39.4099 39.4039H32.267V28.6897H39.4099V39.4039Z" fill="#ADA49D"/>
</svg>
