<svg width="60" height="52" viewBox="0 0 60 52" fill="none" xmlns="http://www.w3.org/2000/svg">
<path d="M59.3487 18.3433L44.8088 0.1719C44.7655 0.118606 44.7109 0.0755565 44.649 0.0458369C44.5871 0.0161173 44.5193 0.000464153 44.4507 0H14.9983C14.8622 0 14.7262 0.0644624 14.6402 0.1719L0.100254 18.3433C0.0329352 18.4285 -0.00248073 18.5345 0.000135199 18.6431C0.00275113 18.7516 0.0432341 18.8559 0.114579 18.9377L29.3807 51.8496C29.4666 51.9499 29.5956 52 29.7245 52C29.8534 52 29.9752 51.9427 30.0683 51.8496L59.3344 18.9377C59.4058 18.8559 59.4462 18.7516 59.4489 18.6431C59.4515 18.5345 59.4161 18.4285 59.3487 18.3433ZM39.265 4.11129L41.7289 13.7019L32.2385 4.11129H39.265ZM39.8523 16.8964H19.5967L29.7245 6.66116L39.8523 16.8964ZM20.184 4.11129H27.2104L17.7129 13.7019L20.184 4.11129ZM16.3592 4.61267L13.2005 16.8964H6.53221L16.3592 4.61267ZM6.99061 20.4777H13.752L22.7625 38.2193L6.99061 20.4777ZM29.7245 44.0066L17.7702 20.4777H41.6716L29.7245 44.0066ZM36.6793 38.2193L45.6969 20.4777H52.4584L36.6793 38.2193ZM46.2485 16.8964L43.0898 4.61267L52.9168 16.8964H46.2485Z" fill="#FA8C16"/>
</svg>
