<svg width="47" height="53" viewBox="0 0 47 53" fill="none" xmlns="http://www.w3.org/2000/svg">
<path d="M14.2166 11.1727L13.3344 11.2315C12.1259 11.3121 10.9878 11.8285 10.1314 12.6849L9.94716 12.8691C9.37049 13.4458 8.94363 14.1548 8.7038 14.9343L7.99328 17.2434C7.91655 17.4928 7.7454 17.7023 7.51636 17.8272L2.21262 20.7202C1.63999 21.0325 1.25594 21.6048 1.18391 22.2531C1.07739 23.2118 1.67122 24.1096 2.59513 24.3868L3.04562 24.522C3.65258 24.704 4.3055 24.6547 4.87818 24.3834L8.33266 22.7471C8.97181 22.4443 9.71469 22.8826 9.7588 23.5884L10.1133 29.2597C10.2123 30.844 9.89052 32.4262 9.18063 33.846L7.01945 38.1684C6.79326 38.6208 6.63701 39.1049 6.55605 39.6041L5.12171 48.4492C4.97623 49.3464 5.34062 50.2501 6.06767 50.7954L6.12112 50.8355C6.82885 51.3662 7.77573 51.4516 8.56699 51.056C9.25536 50.7118 9.72999 50.0506 9.83587 49.2883L11.143 39.8772C11.1549 39.7911 11.1781 39.7069 11.2118 39.6267L13.5518 34.0693L14.337 42.4447C14.4102 43.2256 14.6661 43.9784 15.084 44.6421L18.6514 50.3079C19.1665 51.1261 20.174 51.4865 21.0912 51.1808C21.7906 50.9476 22.3164 50.3646 22.4763 49.645L22.5572 49.2807C22.7225 48.5371 22.5728 47.7583 22.1437 47.1289L19.1098 42.6792C18.6017 41.934 18.3046 41.0652 18.2501 40.165L17.8169 33.0173C17.7637 32.1402 17.9426 31.2646 18.3356 30.4787L18.6482 29.8535C19.0297 29.0905 19.2097 28.2425 19.1709 27.3904L18.9312 22.1152L18.3334 18.5289L20.0744 19.7724C20.2984 19.9325 20.4466 20.1778 20.4839 20.4506L21.0705 24.737C21.1544 25.3507 21.4957 25.8996 22.0089 26.2463L22.2337 26.3982C22.9277 26.8671 23.8516 26.8048 24.4765 26.247C24.8652 25.8998 25.0875 25.4034 25.0875 24.8822V22.4211C25.0875 21.8214 25.0064 21.2245 24.8463 20.6466C24.3033 18.6857 23.1644 16.942 21.587 15.6567L17.2837 12.1503C16.4219 11.4481 15.3258 11.0987 14.2166 11.1727Z" fill="#FA8C16" stroke="#FA8C16" stroke-width="2" stroke-linejoin="round"/>
<path d="M27.249 34.2906L28.7934 32.5747L29.4631 32.1729C30.0119 31.8436 30.5862 31.5587 31.1804 31.321L31.7819 31.0804L32.3924 30.9787C33.1761 30.8481 33.9753 30.8388 34.7618 30.9511C35.3501 31.0352 35.8968 31.3031 36.3237 31.7166L40.1498 35.4231L43.5736 38.74C44.6325 39.7658 45.2302 41.1771 45.2302 42.6514V43.0639C45.2302 43.9827 44.7846 44.8445 44.0348 45.3756L40.6668 48.5431C40.1599 49.0198 39.4417 49.1988 38.7704 49.0158L38.1123 48.8363C37.1051 48.5616 36.2091 47.9785 35.5501 47.1688L27.1845 36.8911C26.5624 36.1268 26.5898 35.0232 27.249 34.2906Z" fill="#FA8C16"/>
<path d="M24.0117 26.5977L28.7934 32.5747M28.7934 32.5747L27.249 34.2906C26.5898 35.0232 26.5624 36.1268 27.1845 36.8911L35.5501 47.1688C36.2091 47.9785 37.1051 48.5616 38.1123 48.8363L38.7704 49.0158C39.4417 49.1988 40.1599 49.0198 40.6668 48.5431L44.0348 45.3756M28.7934 32.5747L29.4631 32.1729C30.0119 31.8436 30.5862 31.5587 31.1804 31.321L31.7819 31.0804M31.7819 31.0804L37.7589 38.1728M31.7819 31.0804L32.3924 30.9787C33.1761 30.8481 33.9753 30.8388 34.7618 30.9511V30.9511C35.3501 31.0352 35.8968 31.3031 36.3237 31.7166L43.5736 38.74C44.6325 39.7658 45.2302 41.1771 45.2302 42.6514V43.0639C45.2302 43.9827 44.7846 44.8445 44.0348 45.3756V45.3756M44.0348 45.3756L37.7589 38.1728M37.7589 38.1728L40.1498 35.4231" stroke="#FA8C16" stroke-width="2"/>
<circle cx="12.3559" cy="4.78164" r="3.78164" fill="#FA8C16" stroke="#FA8C16" stroke-width="2"/>
<circle cx="37.7589" cy="50.506" r="0.994263" fill="#FA8C16" stroke="#FA8C16"/>
</svg>
