<svg width="43" height="50" viewBox="0 0 43 50" fill="none" xmlns="http://www.w3.org/2000/svg">
<path d="M21.25 0L0 7.14286V28.5714C0 40.4074 9.5127 50 21.25 50C32.9873 50 42.5 40.4074 42.5 28.5714V7.14286L21.25 0ZM38.5156 28.5714C38.5156 38.1864 30.7848 45.9821 21.25 45.9821C11.7152 45.9821 3.98438 38.1864 3.98438 28.5714V10.1562L21.25 4.01786L38.5156 10.1562V28.5714Z" fill="#ADA49D"/>
<path d="M14.0983 22.9853C13.9211 22.805 13.7105 22.6619 13.4785 22.5643C13.2466 22.4667 12.9978 22.4164 12.7467 22.4164C12.4955 22.4164 12.2468 22.4667 12.0148 22.5643C11.7829 22.6619 11.5722 22.805 11.395 22.9853C11.217 23.1648 11.0757 23.3781 10.9794 23.6131C10.883 23.848 10.8333 24.0999 10.8333 24.3543C10.8333 24.6087 10.883 24.8606 10.9794 25.0955C11.0757 25.3305 11.217 25.5438 11.395 25.7233L18.2674 32.6838L18.379 32.7968C18.5466 32.9669 18.7457 33.1018 18.9648 33.1939C19.184 33.2859 19.419 33.3333 19.6562 33.3333C19.8935 33.3333 20.1285 33.2859 20.3476 33.1939C20.5668 33.1018 20.7659 32.9669 20.9335 32.7968L32.8036 20.7745C32.9715 20.6047 33.1047 20.4031 33.1956 20.1811C33.2866 19.9591 33.3333 19.7212 33.3333 19.4808C33.3333 19.2405 33.2866 19.0026 33.1956 18.7806C33.1047 18.5586 32.9715 18.357 32.8036 18.1872L32.6549 18.0366C32.4872 17.8665 32.2881 17.7315 32.069 17.6395C31.8498 17.5474 31.6148 17.5 31.3776 17.5C31.1403 17.5 30.9053 17.5474 30.6862 17.6395C30.467 17.7315 30.2679 17.8665 30.1003 18.0366L19.6536 28.6118L14.0983 22.9853Z" fill="#ADA49D"/>
</svg>
