<svg width="28" height="27" viewBox="0 0 28 27" fill="none" xmlns="http://www.w3.org/2000/svg">
<path d="M25.6554 8.06625V5.4C25.6554 2.4219 23.2335 0 20.2554 0H6.7554C3.7773 0 1.3554 2.4219 1.3554 5.4V8.0973L1.2528 8.1027C0.912331 8.12728 0.593812 8.27992 0.361364 8.5299C0.128916 8.77989 -0.000202988 9.10865 2.3954e-07 9.45V12.15C2.3954e-07 12.508 0.142232 12.8514 0.395406 13.1046C0.64858 13.3578 0.991958 13.5 1.35 13.5H1.3554V21.6C1.3554 22.5923 1.89945 23.4522 2.7 23.922V25.65C2.7 26.008 2.84223 26.3514 3.09541 26.6046C3.34858 26.8578 3.69196 27 4.05 27H5.4C5.75804 27 6.10142 26.8578 6.35459 26.6046C6.60777 26.3514 6.75 26.008 6.75 25.65V24.3H20.25V25.65C20.25 26.008 20.3922 26.3514 20.6454 26.6046C20.8986 26.8578 21.242 27 21.6 27H22.95C23.308 27 23.6514 26.8578 23.9046 26.6046C24.1578 26.3514 24.3 26.008 24.3 25.65V23.9274C24.7104 23.6927 25.0518 23.354 25.2897 22.9454C25.5276 22.5368 25.6538 22.0728 25.6554 21.6V13.5C26.0134 13.5 26.3568 13.3578 26.61 13.1046C26.8632 12.8514 27.0054 12.508 27.0054 12.15V9.5337C27.0209 9.32419 26.9877 9.11393 26.9082 8.91945C26.6341 8.262 26.0509 8.10405 25.6554 8.06625ZM22.9581 21.6H4.0554V14.85H22.9567L22.9581 21.6ZM12.1554 6.75V12.15H4.0554V6.75H12.1554ZM22.9554 6.75V12.15H14.8554V6.75H22.9554ZM6.7554 2.7H20.2554C21.249 2.7 22.1116 3.24675 22.5801 4.05H4.4307C4.89915 3.24675 5.7618 2.7 6.7554 2.7Z" fill="#F47607"/>
<path d="M7.42539 20.25C8.54377 20.25 9.45039 19.3433 9.45039 18.225C9.45039 17.1066 8.54377 16.2 7.42539 16.2C6.30701 16.2 5.40039 17.1066 5.40039 18.225C5.40039 19.3433 6.30701 20.25 7.42539 20.25Z" fill="#F47607"/>
<path d="M19.5758 20.25C20.6942 20.25 21.6008 19.3433 21.6008 18.225C21.6008 17.1066 20.6942 16.2 19.5758 16.2C18.4574 16.2 17.5508 17.1066 17.5508 18.225C17.5508 19.3433 18.4574 20.25 19.5758 20.25Z" fill="#F47607"/>
</svg>
