<svg width="58" height="52" viewBox="0 0 58 52" fill="none" xmlns="http://www.w3.org/2000/svg">
<path d="M25.893 39.7959C25.893 40.6403 26.2204 41.4501 26.803 42.0471C27.3857 42.6442 28.176 42.9796 29 42.9796C29.824 42.9796 30.6143 42.6442 31.197 42.0471C31.7796 41.4501 32.107 40.6403 32.107 39.7959C32.107 38.9516 31.7796 38.1418 31.197 37.5447C30.6143 36.9477 29.824 36.6122 29 36.6122C28.176 36.6122 27.3857 36.9477 26.803 37.5447C26.2204 38.1418 25.893 38.9516 25.893 39.7959ZM26.9287 19.6327V31.8367C26.9287 32.1286 27.1617 32.3673 27.4465 32.3673H30.5535C30.8383 32.3673 31.0713 32.1286 31.0713 31.8367V19.6327C31.0713 19.3408 30.8383 19.102 30.5535 19.102H27.4465C27.1617 19.102 26.9287 19.3408 26.9287 19.6327ZM57.72 48.8163L30.793 1.06122C30.3917 0.351531 29.6991 0 29 0C28.3009 0 27.6019 0.351531 27.207 1.06122L0.279973 48.8163C-0.516188 50.2357 0.480631 52 2.07295 52H55.927C57.5194 52 58.5162 50.2357 57.72 48.8163ZM7.00526 46.9658L29 7.95255L50.9947 46.9658H7.00526Z" fill="#FA8C16"/>
</svg>
