<svg width="27" height="31" viewBox="0 0 27 31" fill="none" xmlns="http://www.w3.org/2000/svg">
<path d="M22.8125 16.1996L21.4072 11.9827C21.2034 11.3688 20.8113 10.8349 20.2866 10.4567C19.762 10.0784 19.1314 9.87516 18.4847 9.87573H9.11805C8.47127 9.87516 7.84076 10.0784 7.3161 10.4567C6.79145 10.8349 6.39933 11.3688 6.19547 11.9827L4.79017 16.1996C4.41687 16.3562 4.09808 16.6195 3.87369 16.9564C3.6493 17.2934 3.52929 17.689 3.52869 18.0939V23.2302C3.52869 24.0037 3.96322 24.6704 4.59602 25.0207C4.58266 25.0885 4.55595 25.1502 4.55595 25.221V27.3393C4.55595 27.6117 4.66418 27.873 4.85683 28.0657C5.04948 28.2583 5.31077 28.3665 5.58322 28.3665H6.61049C6.88294 28.3665 7.14423 28.2583 7.33688 28.0657C7.52953 27.873 7.63775 27.6117 7.63775 27.3393V25.2847H19.965V27.3393C19.965 27.6117 20.0732 27.873 20.2658 28.0657C20.4585 28.2583 20.7198 28.3665 20.9922 28.3665H22.0195C22.2919 28.3665 22.5532 28.2583 22.7459 28.0657C22.9385 27.873 23.0468 27.6117 23.0468 27.3393V25.221C23.0468 25.1502 23.0201 25.0875 23.0067 25.0207C23.3286 24.8452 23.5975 24.5864 23.7853 24.2715C23.9731 23.9565 24.0728 23.5969 24.074 23.2302V18.0939C24.074 17.2423 23.5522 16.5109 22.8125 16.1996ZM5.58322 23.2302V18.0939H22.0195L22.0215 23.2302H5.58322ZM9.11805 11.9303H18.4836C18.9264 11.9303 19.3188 12.2117 19.4585 12.6329L20.5947 16.0393H7.00804L8.14317 12.6329C8.21133 12.4283 8.34217 12.2503 8.51715 12.1242C8.69212 11.9981 8.90236 11.9302 9.11805 11.9303Z" fill="#F47607"/>
<path d="M8.15145 22.2029C9.00247 22.2029 9.69235 21.513 9.69235 20.662C9.69235 19.811 9.00247 19.1211 8.15145 19.1211C7.30043 19.1211 6.61055 19.811 6.61055 20.662C6.61055 21.513 7.30043 22.2029 8.15145 22.2029Z" fill="#F47607"/>
<path d="M19.4513 22.2029C20.3024 22.2029 20.9922 21.513 20.9922 20.662C20.9922 19.811 20.3024 19.1211 19.4513 19.1211C18.6003 19.1211 17.9104 19.811 17.9104 20.662C17.9104 21.513 18.6003 22.2029 19.4513 22.2029Z" fill="#F47607"/>
<path d="M0.789246 8.50602L13.8013 2L25.4437 8.50602" stroke="#F47607" stroke-width="2"/>
</svg>
