<svg width="64" height="67" viewBox="0 0 64 67" fill="none" xmlns="http://www.w3.org/2000/svg">
<g clip-path="url(#clip0)">
<path d="M14.0426 27.2606C15.2903 23.3089 17.6983 19.8706 20.9229 17.4362C24.1476 15.0018 28.0243 13.6957 32 13.7043C36.5066 13.7043 40.5813 15.3793 43.7813 18.1207L53.0933 8.375C47.4186 3.19646 40.1466 0 32 0C19.3866 0 8.52797 7.53192 3.30664 18.5646L14.0426 27.2606Z" fill="#EA4335"/>
<path d="M42.7733 50.2863C39.8666 52.2489 36.1759 53.2958 31.9999 53.2958C28.0401 53.3043 24.1781 52.0086 20.9605 49.5922C17.743 47.1758 15.3331 43.7611 14.0719 39.8315L3.29858 48.3936C5.9419 53.9945 10.0326 58.7071 15.1061 61.9961C20.1796 65.2851 26.0325 67.0188 31.9999 67C39.8213 67 47.2932 64.0883 52.8906 58.625L42.7759 50.2863H42.7733Z" fill="#34A853"/>
<path d="M52.8907 58.6251C58.744 52.9078 62.544 44.3988 62.544 33.5001C62.544 31.518 62.2533 29.388 61.8187 27.4087H32V40.3536H49.1627C48.3173 44.7059 46.0427 48.0754 42.776 50.2864L52.8907 58.6251Z" fill="#4A90E2"/>
<path d="M14.0721 39.8314C13.4197 37.7904 13.0883 35.6521 13.0907 33.4999C13.0907 31.3168 13.4241 29.2202 14.0427 27.2605L3.30673 18.5645C1.11041 23.2061 -0.0217907 28.32 6.64048e-05 33.4999C6.64048e-05 38.8599 1.18673 43.9128 3.29873 48.3934L14.0721 39.8314Z" fill="#FBBC05"/>
</g>
<defs>
<clipPath id="clip0">
<rect width="64" height="67" fill="white"/>
</clipPath>
</defs>
</svg>
