<svg width="56" height="56" viewBox="0 0 56 56" fill="none" xmlns="http://www.w3.org/2000/svg">
<path d="M28 2C13.642 2 2 13.642 2 28C2 42.358 13.642 54 28 54C42.358 54 54 42.358 54 28C54 13.642 42.358 2 28 2ZM28 49.5893C16.0795 49.5893 6.41071 39.9205 6.41071 28C6.41071 16.0795 16.0795 6.41071 28 6.41071C39.9205 6.41071 49.5893 16.0795 49.5893 28C49.5893 39.9205 39.9205 49.5893 28 49.5893ZM30.7683 26.6536L29.2942 26.3112V18.517C31.4996 18.8188 32.8634 20.2 33.0955 21.8946C33.1246 22.1268 33.3219 22.2951 33.554 22.2951H36.1598C36.4326 22.2951 36.6473 22.0571 36.6241 21.7844C36.2701 18.1687 33.2929 15.8473 29.3174 15.4469V13.5491C29.3174 13.2937 29.1085 13.0848 28.8531 13.0848H27.2223C26.967 13.0848 26.758 13.2937 26.758 13.5491V15.4643C22.6491 15.8647 19.4339 18.1339 19.4339 22.3705C19.4339 26.2937 22.3241 28.1857 25.3594 28.9112L26.7929 29.2768V37.5585C24.2277 37.2161 22.7884 35.8464 22.4924 34.0009C22.4576 33.7804 22.2603 33.6179 22.0339 33.6179H19.3527C19.0799 33.6179 18.8652 33.85 18.8884 34.1228C19.1496 37.3147 21.5696 40.2513 26.7348 40.6286V42.4509C26.7348 42.7062 26.9437 42.9152 27.1991 42.9152H28.8473C29.1027 42.9152 29.3116 42.7063 29.3116 42.4451L29.3 40.6054C33.8442 40.2049 37.0942 37.7732 37.0942 33.4089C37.0884 29.3812 34.529 27.5821 30.7683 26.6536ZM26.7871 25.7134C26.4621 25.6205 26.1893 25.5335 25.9165 25.4232C23.9549 24.7152 23.0437 23.5719 23.0437 22.0978C23.0437 19.9911 24.6397 18.7897 26.7871 18.517V25.7134ZM29.2942 37.5759V29.8165C29.4741 29.8687 29.6366 29.9094 29.8049 29.9442C32.55 30.7799 33.4728 31.9406 33.4728 33.7223C33.4728 35.9915 31.7665 37.3554 29.2942 37.5759Z" fill="#FA8C16"/>
<path d="M2 54L54 2" stroke="#FA8C16" stroke-width="3"/>
<path d="M6 50L50 6" stroke="#FA8C16" stroke-width="2" stroke-linecap="round" stroke-linejoin="round"/>
</svg>
