<svg width="29" height="29" viewBox="0 0 29 29" fill="none" xmlns="http://www.w3.org/2000/svg">
<path d="M6.39492 8.68216C5.13019 8.68216 4.10703 7.65906 4.10703 6.39439C4.10703 5.78763 4.34807 5.20573 4.77714 4.77669C5.2062 4.34765 5.78814 4.10662 6.39492 4.10662C7.65966 4.10662 8.68282 5.12972 8.68282 6.39439C8.68282 7.00114 8.44177 7.58305 8.01271 8.01209C7.58365 8.44113 7.00171 8.68216 6.39492 8.68216ZM6.39492 0C2.84229 0 0.00018692 2.84195 0.00018692 6.39439C0.00018692 11.1831 6.39492 18.2737 6.39492 18.2737C6.39492 18.2737 12.7897 11.1831 12.7897 6.39439C12.7897 2.84195 9.94756 0 6.39492 0ZM22.0265 8.68216C21.4197 8.68216 20.8378 8.44113 20.4087 8.01209C19.9797 7.58305 19.7386 7.00114 19.7386 6.39439C19.7386 6.09396 19.7978 5.79646 19.9128 5.5189C20.0277 5.24133 20.1963 4.98913 20.4087 4.77669C20.6212 4.56425 20.8734 4.39574 21.151 4.28077C21.4285 4.16579 21.7261 4.10662 22.0265 4.10662C22.327 4.10662 22.6245 4.16579 22.902 4.28077C23.1796 4.39574 23.4318 4.56425 23.6443 4.77669C23.8567 4.98913 24.0253 5.24133 24.1402 5.5189C24.2552 5.79646 24.3144 6.09396 24.3144 6.39439C24.3144 7.00114 24.0734 7.58305 23.6443 8.01209C23.2152 8.44113 22.6333 8.68216 22.0265 8.68216ZM22.0265 0C18.4739 0 15.6318 2.84195 15.6318 6.39439C15.6318 11.1831 22.0265 18.2737 22.0265 18.2737C22.0265 18.2737 28.4212 11.1831 28.4212 6.39439C28.4212 2.84195 25.5791 0 22.0265 0ZM22.0265 19.8937C20.2218 19.8937 18.616 21.0304 18.0191 22.7356H10.4023C10.0257 21.6721 9.24295 20.8012 8.22543 20.3138C7.20791 19.8264 6.03865 19.7622 4.97387 20.1352C4.44465 20.3207 3.95716 20.6086 3.53928 20.9825C3.1214 21.3564 2.78132 21.8091 2.53848 22.3145C2.29564 22.8199 2.15481 23.3683 2.12404 23.9282C2.09327 24.4881 2.17315 25.0486 2.35913 25.5776C2.74078 26.6438 3.52886 27.5158 4.55127 28.003C5.57368 28.4902 6.74735 28.5531 7.81598 28.1779C9.02387 27.7517 9.94755 26.7854 10.4023 25.5776H18.0333C18.8149 27.7943 21.2591 28.9595 23.4476 28.1779C23.9784 27.9944 24.4677 27.7078 24.8874 27.3346C25.3072 26.9614 25.649 26.5089 25.8933 26.0032C26.1376 25.4974 26.2795 24.9484 26.311 24.3877C26.3424 23.8269 26.2627 23.2655 26.0765 22.7356C25.4655 21.0304 23.8455 19.8937 22.0265 19.8937ZM22.0265 26.288C21.4612 26.288 20.919 26.0635 20.5193 25.6638C20.1195 25.264 19.8949 24.7219 19.8949 24.1566C19.8949 23.5913 20.1195 23.0491 20.5193 22.6494C20.919 22.2497 21.4612 22.0251 22.0265 22.0251C22.5918 22.0251 23.134 22.2497 23.5338 22.6494C23.9335 23.0491 24.1581 23.5913 24.1581 24.1566C24.1581 24.7219 23.9335 25.264 23.5338 25.6638C23.134 26.0635 22.5918 26.288 22.0265 26.288Z" fill="#F47607"/>
</svg>
