<svg width="44" height="50" viewBox="0 0 44 50" fill="none" xmlns="http://www.w3.org/2000/svg">
<path d="M31.8085 13.5321V10.7798C31.8085 10.5275 31.6011 10.3211 31.3475 10.3211H9.21986C8.96631 10.3211 8.75887 10.5275 8.75887 10.7798V13.5321C8.75887 13.7844 8.96631 13.9908 9.21986 13.9908H31.3475C31.6011 13.9908 31.8085 13.7844 31.8085 13.5321ZM9.21986 18.578C8.96631 18.578 8.75887 18.7844 8.75887 19.0367V21.789C8.75887 22.0413 8.96631 22.2477 9.21986 22.2477H19.8227C20.0762 22.2477 20.2837 22.0413 20.2837 21.789V19.0367C20.2837 18.7844 20.0762 18.578 19.8227 18.578H9.21986ZM30.8865 25.2294C24.012 25.2294 18.4397 30.7741 18.4397 37.6147C18.4397 44.4553 24.012 50 30.8865 50C37.7611 50 43.3333 44.4553 43.3333 37.6147C43.3333 30.7741 37.7611 25.2294 30.8865 25.2294ZM37.0811 43.7787C35.4273 45.4243 33.2261 46.3303 30.8865 46.3303C28.547 46.3303 26.3457 45.4243 24.6919 43.7787C23.0381 42.133 22.1277 39.9427 22.1277 37.6147C22.1277 35.2867 23.0381 33.0963 24.6919 31.4507C26.3457 29.805 28.547 28.8991 30.8865 28.8991C33.2261 28.8991 35.4273 29.805 37.0811 31.4507C38.7349 33.0963 39.6454 35.2867 39.6454 37.6147C39.6454 39.9427 38.7349 42.133 37.0811 43.7787ZM36.0151 33.2569H33.4623C33.3125 33.2569 33.1742 33.3257 33.0878 33.4461L29.4286 38.4805L28.0975 36.6514C28.0549 36.5923 27.9986 36.5443 27.9334 36.5113C27.8682 36.4784 27.7961 36.4615 27.723 36.4622H25.1817C24.8072 36.4622 24.5882 36.8865 24.8072 37.1904L29.0598 43.0447C29.2442 43.297 29.6188 43.297 29.8032 43.0447L36.3839 33.9851C36.6086 33.6812 36.3896 33.2569 36.0151 33.2569ZM17.5177 44.4954H4.14894V4.12844H36.4184V23.8532C36.4184 24.1055 36.6259 24.3119 36.8794 24.3119H40.1064C40.3599 24.3119 40.5674 24.1055 40.5674 23.8532V1.83486C40.5674 0.819954 39.7434 0 38.7234 0H1.84397C0.824025 0 0 0.819954 0 1.83486V46.789C0 47.8039 0.824025 48.6239 1.84397 48.6239H17.5177C17.7713 48.6239 17.9787 48.4174 17.9787 48.1651V44.9541C17.9787 44.7018 17.7713 44.4954 17.5177 44.4954Z" fill="#ADA49D"/>
</svg>
