<svg width="18" height="25" viewBox="0 0 18 25" fill="none" xmlns="http://www.w3.org/2000/svg">
<path d="M8.72093 11.875C7.89488 11.875 7.10267 11.5458 6.51856 10.9597C5.93446 10.3737 5.60631 9.5788 5.60631 8.75C5.60631 7.9212 5.93446 7.12634 6.51856 6.54029C7.10267 5.95424 7.89488 5.625 8.72093 5.625C9.54698 5.625 10.3392 5.95424 10.9233 6.54029C11.5074 7.12634 11.8355 7.9212 11.8355 8.75C11.8355 9.16038 11.755 9.56674 11.5985 9.94588C11.4419 10.325 11.2125 10.6695 10.9233 10.9597C10.6341 11.2499 10.2907 11.4801 9.91284 11.6371C9.53496 11.7942 9.12995 11.875 8.72093 11.875ZM8.72093 0C6.408 0 4.18979 0.921872 2.5543 2.56282C0.91881 4.20376 0 6.42935 0 8.75C0 15.3125 8.72093 25 8.72093 25C8.72093 25 17.4419 15.3125 17.4419 8.75C17.4419 6.42935 16.5231 4.20376 14.8876 2.56282C13.2521 0.921872 11.0339 0 8.72093 0Z" fill="#5A696F"/>
</svg>
