<svg width="50" height="50" viewBox="0 0 50 50" fill="none" xmlns="http://www.w3.org/2000/svg">
<path d="M25 0C11.1942 0 0 11.1942 0 25C0 38.8058 11.1942 50 25 50C38.8058 50 50 38.8058 50 25C50 11.1942 38.8058 0 25 0ZM25 45.7589C13.5379 45.7589 4.24107 36.4621 4.24107 25C4.24107 13.5379 13.5379 4.24107 25 4.24107C36.4621 4.24107 45.7589 13.5379 45.7589 25C45.7589 36.4621 36.4621 45.7589 25 45.7589ZM27.6618 23.7054L26.2444 23.3761V15.8817C28.365 16.1719 29.6763 17.5 29.8996 19.1295C29.9275 19.3527 30.1172 19.5145 30.3404 19.5145H32.846C33.1083 19.5145 33.3147 19.2857 33.2924 19.0234C32.952 15.5469 30.0893 13.3147 26.2667 12.9297V11.1049C26.2667 10.8594 26.0658 10.6585 25.8203 10.6585H24.2522C24.0067 10.6585 23.8058 10.8594 23.8058 11.1049V12.9464C19.8549 13.3315 16.7634 15.5134 16.7634 19.5871C16.7634 23.3594 19.5424 25.1786 22.4609 25.8761L23.8393 26.2277V34.1908C21.3728 33.8616 19.9888 32.5446 19.7042 30.7701C19.6708 30.558 19.481 30.4018 19.2634 30.4018H16.6853C16.423 30.4018 16.2165 30.625 16.2388 30.8873C16.49 33.9565 18.817 36.7801 23.7835 37.1429V38.8951C23.7835 39.1406 23.9844 39.3415 24.2299 39.3415H25.8147C26.0603 39.3415 26.2612 39.1406 26.2612 38.8895L26.25 37.1205C30.6194 36.7355 33.7444 34.3973 33.7444 30.2009C33.7388 26.3281 31.2779 24.5982 27.6618 23.7054ZM23.8337 22.8013C23.5212 22.7121 23.2589 22.6283 22.9967 22.5223C21.1105 21.8415 20.2344 20.7422 20.2344 19.3248C20.2344 17.2991 21.769 16.144 23.8337 15.8817V22.8013ZM26.2444 34.2076V26.7467C26.4174 26.7969 26.5737 26.8359 26.7355 26.8694C29.375 27.673 30.2623 28.7891 30.2623 30.5022C30.2623 32.6842 28.6217 33.9955 26.2444 34.2076Z" fill="#ADA49D"/>
</svg>
