<svg width="29" height="35" viewBox="0 0 29 35" fill="none" xmlns="http://www.w3.org/2000/svg">
<path d="M27.854 8.73525C27.1202 7.02785 26.0622 5.48193 24.7397 4.18474C23.4128 2.87583 21.8486 1.83695 20.1324 1.12485C18.3472 0.37757 16.4528 0 14.5 0C12.5472 0 10.6528 0.37757 8.86761 1.12091C7.14086 1.84066 5.59341 2.87111 4.26035 4.18081C2.93868 5.47873 1.88077 7.02446 1.14597 8.73132C0.385887 10.5012 0 12.3812 0 14.3162C0 17.0929 0.658737 19.8578 1.95282 22.5244C2.99355 24.6679 4.44745 26.7564 6.27944 28.7426C9.40941 32.1328 12.6914 34.2055 13.623 34.7601C13.8874 34.9177 14.189 35.0005 14.4961 35C14.8001 35 15.1003 34.9213 15.3692 34.7601C16.3008 34.2055 19.5828 32.1328 22.7128 28.7426C24.5448 26.7603 25.9987 24.6679 27.0394 22.5244C28.3413 19.8618 29 17.1008 29 14.3201C29 12.3851 28.6141 10.5051 27.854 8.73525ZM14.5 31.9834C11.9313 30.3354 2.80645 23.8105 2.80645 14.3201C2.80645 11.2563 4.01868 8.37735 6.22097 6.20631C8.43105 4.03135 11.37 2.83178 14.5 2.83178C17.63 2.83178 20.569 4.03135 22.779 6.21025C24.9813 8.37735 26.1935 11.2563 26.1935 14.3201C26.1935 23.8105 17.0687 30.3354 14.5 31.9834ZM14.5 7.70873C10.7113 7.70873 7.63978 10.808 7.63978 14.6309C7.63978 18.4538 10.7113 21.553 14.5 21.553C18.2887 21.553 21.3602 18.4538 21.3602 14.6309C21.3602 10.808 18.2887 7.70873 14.5 7.70873ZM17.5871 17.7458C17.1822 18.1555 16.701 18.4804 16.1712 18.7018C15.6414 18.9232 15.0734 19.0367 14.5 19.0358C13.3345 19.0358 12.2392 18.5757 11.4129 17.7458C11.0068 17.3373 10.6848 16.8517 10.4654 16.3171C10.246 15.7826 10.1335 15.2095 10.1344 14.6309C10.1344 13.4549 10.5905 12.3497 11.4129 11.5159C12.2392 10.6821 13.3345 10.2259 14.5 10.2259C15.6655 10.2259 16.7608 10.6821 17.5871 11.5159C18.4134 12.3497 18.8656 13.4549 18.8656 14.6309C18.8656 15.8068 18.4134 16.912 17.5871 17.7458Z" fill="#FA8C16"/>
</svg>
