<?xml version="1.0" encoding="utf-8"?>
<!-- Generator: Adobe Illustrator 23.0.5, SVG Export Plug-In . SVG Version: 6.00 Build 0)  -->
<svg version="1.1" id="Layer_1" xmlns="http://www.w3.org/2000/svg" xmlns:xlink="http://www.w3.org/1999/xlink" x="0px" y="0px"
	 viewBox="0 0 423.7 210.6" style="enable-background:new 0 0 423.7 210.6;" xml:space="preserve">
<style type="text/css">
	.st0{fill:#F37621;}
</style>
<path class="st0" d="M80.4,29.7c-18.5,0-60.8,0-60.8,0V181h39.1c0,0-17.8-25-17.8-49.5s14-37.7,14-37.7L39.6,80.4l7.9-4.7l9.7,5.4
	l41.6-21.4c0.3-0.1,0.6-0.3,0.8-0.4c3.5-1.8,6.4-2.8,9.5-2.8c1.9,0,3.4,0.7,4.2,1.7c0.4,0.5,0.7,1,0.8,1.6c0.1,0.4,0.2,0.8,0.2,1.2
	c0,2.5-2.9,5.9-7.1,8.1l-12.7,6.6L83.7,99.1l-9.5,5.2l-1.7-17.5l-12.9,6.7c0,0-4.8,8.3-4.8,20S59,131,59,131s1.4,0,23.7,0
	s52.1-8.3,52.1-51.7S99,29.7,80.4,29.7z M66.8,74.7L62,68.1l8.1-5l17.1,1L66.8,74.7z"/>
<g>
	<path class="st0" d="M184.4,122.4c3,0,5.7,0.4,7.9,1.1s4,1.7,5.5,3c1.4,1.3,2.5,2.8,3.2,4.6s1.1,3.7,1.1,5.8c0,2.2-0.4,4.2-1.1,6
		c-0.7,1.8-1.8,3.4-3.3,4.7s-3.3,2.3-5.5,3.1c-2.2,0.7-4.8,1.1-7.7,1.1h-6.3v16h-8.4v-45.3h14.6V122.4z M184.4,145.2
		c1.5,0,2.9-0.2,4-0.6c1.1-0.4,2.1-0.9,2.9-1.7s1.3-1.6,1.7-2.6s0.6-2.2,0.6-3.5c0-1.2-0.2-2.3-0.6-3.3c-0.4-1-0.9-1.8-1.7-2.5
		s-1.7-1.2-2.9-1.6c-1.1-0.4-2.5-0.5-4.1-0.5H178v16.3L184.4,145.2L184.4,145.2z"/>
	<path class="st0" d="M205.6,140.1c3.7-3.4,8.1-5.1,13.4-5.1c1.9,0,3.6,0.3,5,0.9c1.5,0.6,2.7,1.5,3.8,2.6c1,1.1,1.8,2.4,2.3,3.9
		s0.8,3.2,0.8,5v20.3h-3.5c-0.7,0-1.3-0.1-1.7-0.3s-0.7-0.7-0.9-1.3l-0.7-2.3c-0.8,0.7-1.6,1.4-2.4,1.9c-0.8,0.6-1.6,1-2.4,1.4
		c-0.8,0.4-1.7,0.7-2.7,0.9s-2,0.3-3.1,0.3c-1.4,0-2.6-0.2-3.8-0.5c-1.1-0.4-2.1-0.9-3-1.6c-0.8-0.7-1.5-1.6-1.9-2.7
		c-0.5-1.1-0.7-2.4-0.7-3.8c0-0.8,0.1-1.6,0.4-2.4c0.3-0.8,0.7-1.6,1.3-2.3s1.4-1.4,2.4-2.1c1-0.6,2.2-1.2,3.6-1.7
		c1.4-0.5,3.1-0.9,5-1.2s4.1-0.5,6.5-0.5v-1.9c0-2.2-0.5-3.7-1.4-4.8c-0.9-1-2.2-1.6-4-1.6c-1.3,0-2.3,0.1-3.1,0.4
		c-0.8,0.3-1.6,0.6-2.2,1s-1.2,0.7-1.7,1s-1.1,0.4-1.7,0.4c-0.5,0-1-0.1-1.4-0.4c-0.4-0.3-0.7-0.6-0.9-1L205.6,140.1z M223.3,154
		c-2.2,0.1-4.1,0.3-5.6,0.6s-2.7,0.6-3.7,1.1c-0.9,0.4-1.6,1-2,1.5c-0.4,0.6-0.6,1.2-0.6,1.9c0,1.4,0.4,2.3,1.2,2.9
		c0.8,0.6,1.9,0.9,3.1,0.9c1.6,0,3-0.3,4.1-0.9c1.2-0.6,2.3-1.4,3.4-2.6V154H223.3z"/>
	<path class="st0" d="M245.4,141.2c1-1.9,2.2-3.4,3.6-4.5c1.4-1.1,3-1.6,4.9-1.6c1.5,0,2.7,0.3,3.6,1l-0.5,5.8
		c-0.1,0.4-0.3,0.6-0.5,0.8s-0.5,0.2-0.8,0.2s-0.8-0.1-1.4-0.2c-0.6-0.1-1.2-0.2-1.8-0.2c-0.9,0-1.6,0.1-2.3,0.4s-1.3,0.6-1.8,1.1
		s-1,1-1.4,1.7s-0.8,1.4-1.1,2.3v19.8h-7.7v-32.2h4.5c0.8,0,1.3,0.1,1.7,0.4s0.5,0.8,0.6,1.5L245.4,141.2z"/>
	<path class="st0" d="M269.2,121.2v26.7h1.4c0.5,0,0.9-0.1,1.2-0.2c0.3-0.1,0.6-0.4,0.9-0.8l8-9.9c0.3-0.4,0.7-0.8,1.1-1
		s0.9-0.3,1.6-0.3h7.1l-10,11.9c-0.7,0.9-1.5,1.7-2.3,2.2c0.4,0.3,0.8,0.7,1.2,1.1s0.7,0.9,1,1.3l10.7,15.6h-7
		c-0.6,0-1.1-0.1-1.6-0.3c-0.4-0.2-0.8-0.6-1.1-1.1l-8.2-12.2c-0.3-0.5-0.6-0.8-0.9-0.9c-0.3-0.1-0.8-0.2-1.4-0.2h-1.8v14.7h-7.7
		v-46.6C261.4,121.2,269.2,121.2,269.2,121.2z"/>
	<path class="st0" d="M304.1,126.2c0,0.7-0.1,1.3-0.4,1.9c-0.3,0.6-0.6,1.1-1.1,1.5s-1,0.8-1.6,1c-0.6,0.3-1.3,0.4-1.9,0.4
		c-0.7,0-1.3-0.1-1.9-0.4c-0.6-0.3-1.1-0.6-1.6-1c-0.4-0.4-0.8-1-1-1.5c-0.3-0.6-0.4-1.2-0.4-1.9c0-0.7,0.1-1.3,0.4-1.9
		s0.6-1.1,1-1.6c0.4-0.4,1-0.8,1.6-1c0.6-0.3,1.2-0.4,1.9-0.4c0.7,0,1.3,0.1,1.9,0.4s1.1,0.6,1.6,1s0.8,1,1.1,1.6
		C304,124.9,304.1,125.6,304.1,126.2z M303,135.6v32.2h-7.8v-32.2H303z"/>
	<path class="st0" d="M318.2,139.6c0.6-0.6,1.3-1.2,2.1-1.8c0.7-0.6,1.5-1,2.3-1.4s1.7-0.7,2.6-0.9s1.9-0.3,3-0.3
		c1.8,0,3.3,0.3,4.7,0.9c1.4,0.6,2.5,1.4,3.4,2.5s1.6,2.4,2.1,3.9s0.7,3.1,0.7,4.9v20.5h-7.7v-20.5c0-2-0.5-3.5-1.3-4.6
		c-0.9-1.1-2.3-1.6-4.1-1.6c-1.3,0-2.6,0.3-3.8,0.9c-1.2,0.6-2.3,1.4-3.3,2.5v23.3h-7.7v-32.2h4.7c1,0,1.7,0.5,2,1.4L318.2,139.6z"
		/>
	<path class="st0" d="M374.5,136.7v2.9c0,0.9-0.6,1.5-1.7,1.7l-2.9,0.5c0.4,1.1,0.7,2.3,0.7,3.6c0,1.6-0.3,3-1,4.3s-1.5,2.4-2.6,3.3
		c-1.1,0.9-2.5,1.6-4,2.1s-3.2,0.7-5,0.7c-0.6,0-1.2,0-1.8-0.1c-0.6-0.1-1.2-0.1-1.7-0.3c-1,0.6-1.5,1.3-1.5,2
		c0,0.6,0.3,1.1,0.9,1.4c0.6,0.3,1.4,0.5,2.4,0.6s2.1,0.2,3.4,0.2s2.5,0.1,3.9,0.2s2.6,0.3,3.9,0.5c1.3,0.3,2.4,0.7,3.4,1.2
		s1.8,1.3,2.4,2.3s0.9,2.2,0.9,3.7c0,1.4-0.4,2.8-1,4.1c-0.7,1.3-1.7,2.5-3,3.6c-1.3,1-3,1.9-4.9,2.5s-4.1,1-6.6,1
		c-2.4,0-4.5-0.2-6.3-0.7s-3.3-1.1-4.5-1.9c-1.2-0.8-2.1-1.7-2.7-2.7s-0.9-2.1-0.9-3.2c0-1.5,0.5-2.8,1.4-3.8s2.2-1.8,3.7-2.4
		c-0.9-0.4-1.5-1-2-1.8c-0.5-0.7-0.8-1.7-0.8-2.9c0-0.5,0.1-1,0.3-1.5c0.2-0.5,0.4-1,0.8-1.5c0.3-0.5,0.8-1,1.3-1.4s1.1-0.9,1.8-1.2
		c-1.6-0.9-2.9-2-3.8-3.5s-1.4-3.2-1.4-5.1c0-1.6,0.3-3,1-4.3c0.6-1.3,1.5-2.4,2.7-3.3c1.1-0.9,2.5-1.6,4-2.1
		c1.6-0.5,3.3-0.7,5.1-0.7c1.4,0,2.7,0.1,3.9,0.4c1.2,0.3,2.3,0.7,3.3,1.2h8.9V136.7z M366.8,169.2c0-0.6-0.2-1.1-0.6-1.5
		s-0.9-0.7-1.5-0.9s-1.4-0.4-2.3-0.5s-1.8-0.2-2.8-0.2s-2-0.1-3-0.1s-2-0.1-3-0.3c-0.9,0.5-1.6,1-2.1,1.7c-0.5,0.6-0.8,1.4-0.8,2.3
		c0,0.6,0.1,1.1,0.4,1.6s0.7,0.9,1.3,1.3s1.4,0.6,2.4,0.8s2.2,0.3,3.6,0.3s2.7-0.1,3.7-0.3s1.9-0.5,2.6-0.9s1.2-0.8,1.5-1.4
		C366.6,170.4,366.8,169.8,366.8,169.2z M358,150.9c1,0,1.8-0.1,2.5-0.4c0.7-0.3,1.3-0.6,1.8-1.1s0.8-1,1.1-1.7s0.4-1.4,0.4-2.1
		c0-1.6-0.5-2.8-1.4-3.8c-1-0.9-2.4-1.4-4.3-1.4s-3.3,0.5-4.3,1.4s-1.4,2.2-1.4,3.8c0,0.8,0.1,1.5,0.4,2.1s0.6,1.2,1.1,1.7
		s1.1,0.8,1.8,1.1C356.3,150.8,357.1,150.9,358,150.9z"/>
</g>
<g>
	<path class="st0" d="M210.6,70.3c0,3.4-0.5,6.5-1.5,9.3s-2.5,5.2-4.3,7.1c-1.9,2-4.1,3.5-6.7,4.6c-2.6,1.1-5.5,1.6-8.6,1.6
		s-6-0.5-8.6-1.6s-4.8-2.6-6.7-4.6s-3.3-4.4-4.3-7.1c-1-2.8-1.5-5.9-1.5-9.3s0.5-6.5,1.5-9.3s2.5-5.2,4.3-7.1c1.9-2,4.1-3.5,6.7-4.6
		c2.6-1.1,5.5-1.6,8.6-1.6s6,0.5,8.6,1.6s4.8,2.6,6.7,4.6s3.3,4.4,4.3,7.2C210.1,63.8,210.6,66.9,210.6,70.3z M207.3,70.3
		c0-3.1-0.4-5.9-1.3-8.3c-0.9-2.5-2.1-4.6-3.6-6.3c-1.6-1.7-3.4-3-5.6-3.9c-2.2-0.9-4.6-1.4-7.3-1.4c-2.6,0-5,0.5-7.2,1.4
		s-4.1,2.2-5.7,3.9c-1.6,1.7-2.8,3.8-3.7,6.3c-0.9,2.5-1.3,5.2-1.3,8.3s0.4,5.9,1.3,8.4c0.9,2.5,2.1,4.5,3.7,6.3
		c1.6,1.7,3.5,3,5.7,3.9s4.6,1.3,7.2,1.3c2.7,0,5.1-0.4,7.3-1.3s4.1-2.2,5.6-3.9c1.6-1.7,2.8-3.8,3.6-6.3
		C206.9,76.2,207.3,73.5,207.3,70.3z"/>
	<path class="st0" d="M221.5,66.8c1.4-1.8,3.1-3.2,5-4.3s4-1.6,6.3-1.6c1.7,0,3.2,0.3,4.5,0.8s2.4,1.3,3.2,2.4
		c0.9,1,1.5,2.3,1.9,3.7c0.4,1.4,0.7,3.1,0.7,4.9v19.9h-3v-20c0-2.9-0.7-5.2-2-6.9c-1.3-1.7-3.4-2.5-6.1-2.5c-2,0-3.9,0.5-5.7,1.6
		s-3.3,2.5-4.7,4.3v23.4h-3V61.3h1.7c0.5,0,0.8,0.3,0.9,0.8L221.5,66.8z"/>
	<path class="st0" d="M303.3,92.5h-2.5c-0.3,0-0.5-0.1-0.7-0.2c-0.2-0.2-0.3-0.4-0.4-0.6l-5.2-12.9h-21.8l-5.2,12.9
		c-0.1,0.2-0.2,0.4-0.4,0.6c-0.2,0.2-0.5,0.3-0.8,0.3h-2.4L282,48.3h3.2L303.3,92.5z M293.4,76.4l-9-22.4c-0.3-0.7-0.6-1.6-0.9-2.6
		c-0.1,0.5-0.3,1-0.4,1.4s-0.3,0.9-0.5,1.2l-9,22.4H293.4z"/>
	<path class="st0" d="M313.6,50.6c0,0.4-0.1,0.7-0.2,1.1c-0.2,0.3-0.4,0.6-0.6,0.9s-0.5,0.5-0.9,0.6c-0.3,0.1-0.7,0.2-1.1,0.2
		s-0.7-0.1-1.1-0.2c-0.3-0.1-0.6-0.3-0.9-0.6s-0.4-0.5-0.6-0.9S308,51,308,50.6c0-0.4,0.1-0.7,0.2-1.1s0.3-0.6,0.6-0.9
		c0.3-0.3,0.5-0.4,0.9-0.6c0.3-0.1,0.7-0.2,1.1-0.2s0.7,0.1,1.1,0.2s0.6,0.3,0.9,0.6s0.5,0.5,0.6,0.9S313.6,50.2,313.6,50.6z
		 M312.3,61.3v31.2h-3V61.3H312.3z"/>
	<path class="st0" d="M325.8,68.9c0.5-1.3,1-2.4,1.6-3.4s1.3-1.8,2.1-2.5c0.8-0.7,1.7-1.2,2.7-1.6c1-0.4,2.1-0.5,3.3-0.5
		c0.6,0,1.3,0.1,1.9,0.2c0.6,0.1,1.2,0.3,1.7,0.6l-0.3,2.1c-0.1,0.3-0.3,0.5-0.6,0.5c-0.3,0-0.6-0.1-1.1-0.2s-1.2-0.2-2-0.2
		c-1.2,0-2.3,0.2-3.2,0.5c-0.9,0.4-1.8,0.9-2.5,1.6s-1.4,1.6-1.9,2.7s-1.1,2.3-1.5,3.7v20.2h-3V61.3h1.6c0.4,0,0.6,0.1,0.8,0.2
		c0.1,0.1,0.2,0.4,0.3,0.8L325.8,68.9z"/>
</g>
<g>
	<path class="st0" d="M391.8,107.1c1.4,0,2.8,0.2,4.1,0.6c1.3,0.4,2.5,0.9,3.7,1.6c1.1,0.7,2.2,1.5,3.1,2.4s1.7,2,2.4,3.1
		c0.7,1.1,1.2,2.4,1.6,3.7c0.4,1.3,0.5,2.7,0.5,4.1s-0.2,2.8-0.6,4.1c-0.4,1.3-0.9,2.5-1.6,3.7c-0.7,1.1-1.5,2.2-2.4,3.1
		c-0.9,0.9-2,1.7-3.1,2.4s-2.4,1.2-3.7,1.6c-1.3,0.4-2.7,0.5-4.1,0.5s-2.8-0.2-4.1-0.5c-1.3-0.4-2.5-0.9-3.7-1.6
		c-1.1-0.7-2.2-1.5-3.1-2.4s-1.7-2-2.4-3.1c-0.7-1.1-1.2-2.4-1.6-3.7c-0.4-1.3-0.5-2.7-0.5-4.1s0.2-2.8,0.5-4.1
		c0.4-1.3,0.9-2.5,1.6-3.7c0.7-1.1,1.5-2.2,2.4-3.1s2-1.7,3.1-2.4c1.1-0.7,2.4-1.2,3.7-1.6C389,107.3,390.4,107.1,391.8,107.1z
		 M391.8,135.8c1.2,0,2.4-0.2,3.5-0.5s2.2-0.7,3.1-1.3c1-0.6,1.8-1.2,2.6-2c0.8-0.8,1.5-1.7,2-2.7s1-2,1.3-3.2
		c0.3-1.1,0.5-2.3,0.5-3.5s-0.2-2.4-0.5-3.6c-0.3-1.1-0.7-2.2-1.3-3.2c-0.6-1-1.2-1.9-2-2.7c-0.8-0.8-1.7-1.5-2.6-2.1
		c-1-0.6-2-1-3.1-1.3s-2.3-0.5-3.5-0.5c-1.8,0-3.5,0.3-5.1,1s-2.9,1.6-4.1,2.8s-2.1,2.6-2.7,4.2c-0.7,1.6-1,3.3-1,5.2
		c0,1.8,0.3,3.6,1,5.2c0.7,1.6,1.6,3,2.7,4.2c1.2,1.2,2.5,2.1,4.1,2.8C388.3,135.4,390,135.8,391.8,135.8z M391.6,113.2
		c2.5,0,4.4,0.4,5.6,1.3s1.8,2.2,1.8,4c0,1.3-0.3,2.4-1,3.3s-1.7,1.6-3.1,2c0.3,0.2,0.5,0.4,0.7,0.6s0.4,0.5,0.5,0.8l4.3,6.7h-3.8
		c-0.5,0-0.9-0.2-1.2-0.6l-3.6-5.9c-0.1-0.2-0.3-0.3-0.5-0.5c-0.2-0.1-0.4-0.2-0.8-0.2h-1.4v7.1h-3.9v-18.6H391.6L391.6,113.2z
		 M391.3,122c0.7,0,1.4-0.1,1.9-0.2s0.9-0.3,1.2-0.6s0.5-0.6,0.6-0.9c0.1-0.4,0.2-0.8,0.2-1.3s-0.1-0.9-0.2-1.2
		c-0.1-0.3-0.3-0.6-0.6-0.9c-0.3-0.2-0.6-0.4-1.1-0.5c-0.4-0.1-1-0.2-1.7-0.2h-2.5v5.8C389.1,122,391.3,122,391.3,122z"/>
</g>
</svg>
