<svg width="35" height="35" viewBox="0 0 35 35" fill="none" xmlns="http://www.w3.org/2000/svg">
<path d="M17.5 0C7.83594 0 0 7.83594 0 17.5C0 27.1641 7.83594 35 17.5 35C27.1641 35 35 27.1641 35 17.5C35 7.83594 27.1641 0 17.5 0ZM17.5 32.0312C9.47656 32.0312 2.96875 25.5234 2.96875 17.5C2.96875 9.47656 9.47656 2.96875 17.5 2.96875C25.5234 2.96875 32.0312 9.47656 32.0312 17.5C32.0312 25.5234 25.5234 32.0312 17.5 32.0312ZM19.3633 16.5938L18.3711 16.3633V11.1172C19.8555 11.3203 20.7734 12.25 20.9297 13.3906C20.9492 13.5469 21.082 13.6602 21.2383 13.6602H22.9922C23.1758 13.6602 23.3203 13.5 23.3047 13.3164C23.0664 10.8828 21.0625 9.32031 18.3867 9.05078V7.77344C18.3867 7.60156 18.2461 7.46094 18.0742 7.46094H16.9766C16.8047 7.46094 16.6641 7.60156 16.6641 7.77344V9.0625C13.8984 9.33203 11.7344 10.8594 11.7344 13.7109C11.7344 16.3516 13.6797 17.625 15.7227 18.1133L16.6875 18.3594V23.9336C14.9609 23.7031 13.9922 22.7812 13.793 21.5391C13.7695 21.3906 13.6367 21.2812 13.4844 21.2812H11.6797C11.4961 21.2812 11.3516 21.4375 11.3672 21.6211C11.543 23.7695 13.1719 25.7461 16.6484 26V27.2266C16.6484 27.3984 16.7891 27.5391 16.9609 27.5391H18.0703C18.2422 27.5391 18.3828 27.3984 18.3828 27.2227L18.375 25.9844C21.4336 25.7148 23.6211 24.0781 23.6211 21.1406C23.6172 18.4297 21.8945 17.2188 19.3633 16.5938ZM16.6836 15.9609C16.4648 15.8984 16.2812 15.8398 16.0977 15.7656C14.7773 15.2891 14.1641 14.5195 14.1641 13.5273C14.1641 12.1094 15.2383 11.3008 16.6836 11.1172V15.9609ZM18.3711 23.9453V18.7227C18.4922 18.7578 18.6016 18.7852 18.7148 18.8086C20.5625 19.3711 21.1836 20.1523 21.1836 21.3516C21.1836 22.8789 20.0352 23.7969 18.3711 23.9453Z" fill="#FA8C16"/>
</svg>
