<svg width="42" height="49" viewBox="0 0 42 49" fill="none" xmlns="http://www.w3.org/2000/svg">
<path d="M21 0L0 7V28C0 39.5992 9.40078 49 21 49C32.5992 49 42 39.5992 42 28V7L21 0ZM38.0625 28C38.0625 37.4227 30.4227 45.0625 21 45.0625C11.5773 45.0625 3.9375 37.4227 3.9375 28V9.95312L21 3.9375L38.0625 9.95312V28Z" fill="#F47607"/>
<path d="M13.692 22.4752C13.5096 22.2919 13.2927 22.1464 13.0538 22.0472C12.815 21.9479 12.5589 21.8968 12.3002 21.8968C12.0416 21.8968 11.7855 21.9479 11.5466 22.0472C11.3078 22.1464 11.0909 22.2919 10.9084 22.4752C10.7251 22.6577 10.5797 22.8746 10.4804 23.1134C10.3812 23.3522 10.3301 23.6083 10.3301 23.867C10.3301 24.1256 10.3812 24.3817 10.4804 24.6206C10.5797 24.8594 10.7251 25.0763 10.9084 25.2588L17.985 32.3354L18.0998 32.4502C18.2724 32.6231 18.4775 32.7603 18.7031 32.8539C18.9288 32.9475 19.1707 32.9957 19.4151 32.9957C19.6594 32.9957 19.9013 32.9475 20.127 32.8539C20.3527 32.7603 20.5577 32.6231 20.7303 32.4502L32.953 20.2275C33.1259 20.0549 33.2631 19.8499 33.3567 19.6242C33.4503 19.3986 33.4985 19.1566 33.4985 18.9123C33.4985 18.668 33.4503 18.4261 33.3567 18.2004C33.2631 17.9747 33.1259 17.7697 32.953 17.5971L32.7998 17.4439C32.6272 17.271 32.4222 17.1338 32.1965 17.0402C31.9709 16.9466 31.7289 16.8984 31.4846 16.8984C31.2403 16.8984 30.9984 16.9466 30.7727 17.0402C30.547 17.1338 30.342 17.271 30.1694 17.4439L19.4123 28.1955L13.692 22.4752Z" fill="#F47607"/>
</svg>
