<svg width="49" height="49" viewBox="0 0 49 49" fill="none" xmlns="http://www.w3.org/2000/svg">
<path d="M31.37 15.658L31.7108 16.3814L32.5013 16.5017L47.1857 18.7365C47.1862 18.7365 47.1866 18.7366 47.1871 18.7367C47.3422 18.7618 47.5368 18.9464 47.4944 19.2348L47.4932 19.2428L47.4921 19.2507C47.4775 19.3577 47.4305 19.4488 47.3668 19.5145C47.3665 19.5148 47.3662 19.5151 47.366 19.5153L36.7408 30.3631L36.2093 30.9058L36.3322 31.6553L38.8431 46.977L38.8432 46.9781C38.8929 47.2799 38.6922 47.4675 38.5468 47.4938L38.5446 47.4942C38.4836 47.5053 38.4206 47.4945 38.3691 47.4658L38.3623 47.462L25.2236 40.2283L24.5001 39.83L23.7767 40.2283L10.6379 47.462L10.6356 47.4633C10.5827 47.4926 10.5289 47.503 10.4785 47.4993C10.428 47.4955 10.3729 47.4767 10.3201 47.4366C10.2666 47.3959 10.2165 47.3335 10.1842 47.2503C10.1518 47.1667 10.1415 47.0719 10.1569 46.9789L10.1572 46.977L12.6681 31.6553L12.7909 30.9058L12.2594 30.3631L1.63154 19.5126L1.63145 19.5125C1.55653 19.436 1.5018 19.3173 1.50004 19.1785C1.4983 19.0408 1.54923 18.9204 1.62233 18.8407C1.68458 18.775 1.75067 18.746 1.80589 18.7378L1.80965 18.7372L16.4989 16.5017L17.2894 16.3814L17.6302 15.658L24.1933 1.72473C24.1937 1.72392 24.1941 1.72311 24.1945 1.7223C24.2509 1.60576 24.3344 1.54373 24.41 1.51698C24.4843 1.49068 24.5587 1.49413 24.6328 1.53243L24.6346 1.53334C24.6961 1.56502 24.76 1.62488 24.8029 1.71634L24.8035 1.71761L31.37 15.658ZM36.9091 42.3841L34.9434 30.3932L43.2518 21.915L45.3019 19.823L42.4062 19.3822L30.9777 17.6426L25.857 6.77607L24.5001 3.89663L23.1432 6.77607L18.0226 17.6426L6.59407 19.3822L3.69956 19.8228L5.7481 21.9146L14.0568 30.3989L12.0912 42.3902L11.5921 45.4347L14.2948 43.9469L24.5005 38.3289L34.706 43.9412L37.4079 45.427L36.9091 42.3841Z" stroke="#F47607" stroke-width="3"/>
</svg>
