<svg width="56" height="48" viewBox="0 0 56 48" fill="none" xmlns="http://www.w3.org/2000/svg">
<path d="M54.7044 17.8667H38.662C38.3863 17.8667 38.1607 18.0876 38.1607 18.3576V21.3029C38.1607 21.5728 38.3863 21.7937 38.662 21.7937H54.7044C54.9801 21.7937 55.2057 21.5728 55.2057 21.3029V18.3576C55.2057 18.0876 54.9801 17.8667 54.7044 17.8667ZM46.3072 26.2117H38.662C38.3863 26.2117 38.1607 26.4325 38.1607 26.7025V29.6478C38.1607 29.9178 38.3863 30.1387 38.662 30.1387H46.3072C46.5829 30.1387 46.8085 29.9178 46.8085 29.6478V26.7025C46.8085 26.4325 46.5829 26.2117 46.3072 26.2117ZM25.3957 12.375H22.6823C22.2938 12.375 21.9805 12.6818 21.9805 13.0622V28.2795C21.9805 28.5004 22.087 28.7029 22.2687 28.8317L31.5996 35.4954C31.9129 35.7163 32.3516 35.6549 32.5772 35.3481L34.1877 33.1944V33.1883C34.4133 32.8815 34.3444 32.452 34.031 32.2311L26.0913 26.6105V13.0622C26.0976 12.6818 25.778 12.375 25.3957 12.375Z" fill="#F47607"/>
<path d="M45.9213 33.9216H42.2992C41.9483 33.9216 41.6161 34.0996 41.4281 34.3941C40.6311 35.6312 39.6958 36.7775 38.6395 37.8118C36.8209 39.5984 34.6649 41.0218 32.2915 42.0027C29.8288 43.0213 27.2156 43.5367 24.521 43.5367C21.8201 43.5367 19.207 43.0213 16.7505 42.0027C14.3755 41.021 12.2386 39.6097 10.4025 37.8118C8.5664 36.014 7.1251 33.9216 6.12245 31.5961C5.08221 29.1908 4.55582 26.6321 4.55582 23.9875C4.55582 21.3428 5.08221 18.7903 6.12245 16.3788C7.1251 14.0533 8.5664 11.9609 10.4025 10.1631C12.2386 8.36523 14.3755 6.95395 16.7505 5.97219C19.207 4.95361 21.8264 4.43819 24.521 4.43819C27.2219 4.43819 29.835 4.95361 32.2915 5.97219C34.6665 6.95395 36.8034 8.36523 38.6395 10.1631C39.6958 11.1974 40.6311 12.3437 41.4281 13.5808C41.6161 13.8753 41.9483 14.0533 42.2992 14.0533H45.9213C46.3536 14.0533 46.6294 13.6115 46.4351 13.2372C42.3493 5.27882 34.065 0.106183 24.8155 0.00187164C11.2735 -0.1638 0.025109 10.6908 4.28118e-05 23.9384C-0.0250234 37.2105 10.9602 47.9792 24.5148 47.9792C33.8832 47.9792 42.3055 42.7881 46.4351 34.7377C46.4791 34.6518 46.5 34.5564 46.4958 34.4604C46.4915 34.3644 46.4622 34.2711 46.4107 34.1893C46.3592 34.1075 46.2872 34.04 46.2015 33.9931C46.1159 33.9463 46.0194 33.9217 45.9213 33.9216Z" fill="#F47607"/>
</svg>
